<?xml version="1.0" standalone="no"?>
<!DOCTYPE svg PUBLIC "-//W3C//DTD SVG 20010904//EN"
 "http://www.w3.org/TR/2001/REC-SVG-20010904/DTD/svg10.dtd">
<svg version="1.0" xmlns="http://www.w3.org/2000/svg"
 width="700.000000pt" height="700.000000pt" viewBox="0 0 700.000000 700.000000"
 preserveAspectRatio="xMidYMid meet">
<metadata>
Created by potrace 1.14, written by Peter Selinger 2001-2017
</metadata>
<g transform="translate(0.000000,700.000000) scale(0.100000,-0.100000)"
fill="#000000" stroke="none">
<path d="M3395 6096 c-60 -26 -60 -25 -62 -314 -2 -290 1 -309 55 -335 48 -24
111 -11 138 31 15 23 17 55 17 292 0 295 -3 307 -65 329 -39 14 -46 13 -83 -3z"/>
<path d="M2274 5791 c-41 -25 -60 -70 -46 -110 6 -17 44 -88 85 -158 41 -70
84 -144 94 -163 49 -86 86 -141 103 -150 10 -6 35 -10 55 -10 29 0 45 8 71 34
57 57 58 53 -102 329 -57 98 -104 182 -104 187 0 4 -14 20 -31 34 -37 31 -81
34 -125 7z"/>
<path d="M4484 5792 c-23 -19 -172 -271 -255 -429 -32 -61 -29 -92 12 -133 34
-34 72 -41 115 -22 30 14 37 22 74 86 10 17 44 76 75 131 160 277 159 274 133
330 -23 51 -111 72 -154 37z"/>
<path d="M3285 5133 c-11 -2 -47 -8 -80 -14 -659 -121 -1119 -675 -1118 -1344
0 -94 10 -200 23 -244 5 -17 9 -32 8 -34 -4 -33 68 -244 109 -319 l25 -46 -40
-84 c-111 -233 -128 -493 -46 -743 123 -376 475 -641 876 -660 l87 -4 30 35
c17 19 31 43 31 52 0 16 20 18 261 18 143 1 256 -2 251 -5 -5 -3 -9 -25 -8
-49 2 -35 -2 -46 -18 -55 -28 -15 -30 -14 -122 38 -48 28 -91 45 -111 45 -54
0 -108 -67 -98 -121 7 -33 34 -69 61 -79 33 -13 30 -21 -21 -52 -55 -33 -69
-65 -55 -118 12 -45 51 -80 90 -80 34 0 90 19 90 31 0 5 8 9 19 9 14 0 18 -6
15 -26 -10 -97 103 -152 177 -86 31 28 31 28 33 137 1 107 1 110 26 118 21 8
39 1 108 -39 71 -41 82 -52 82 -75 0 -24 -11 -33 -83 -74 -91 -51 -121 -86
-114 -134 13 -81 85 -118 158 -81 l37 19 4 -60 c3 -47 10 -65 29 -84 32 -32
81 -40 125 -19 41 20 54 46 54 114 l0 49 43 -19 c47 -21 72 -20 110 4 45 30
61 101 32 142 -13 19 -83 65 -158 103 -21 11 -27 21 -25 40 2 20 21 36 86 75
72 42 86 47 106 38 23 -10 24 -16 28 -122 3 -111 3 -112 33 -136 41 -32 104
-33 141 -1 20 18 28 35 31 74 l5 51 42 -24 c82 -47 159 -16 173 69 7 46 -12
77 -68 113 l-41 26 36 24 c42 29 56 52 56 93 0 38 -43 88 -87 100 -27 8 -42 3
-119 -40 -118 -66 -140 -64 -142 14 -1 21 -3 41 -6 45 -2 4 109 8 248 9 247 2
252 1 253 -18 3 -31 31 -69 58 -79 54 -21 226 6 342 52 441 175 649 684 452
1106 -92 199 -255 357 -444 431 -83 32 -89 34 -105 33 -10 -1 -11 0 -2 4 18 8
15 22 -23 98 -50 98 -114 191 -189 272 -62 68 -183 168 -236 196 -22 11 -25
21 -27 68 -5 127 -62 328 -134 473 -160 322 -454 579 -789 690 -136 46 -225
60 -395 62 -88 1 -169 0 -180 -2z m789 -3388 c83 0 158 2 166 6 13 6 14 -2 12
-49 l-4 -57 -85 -47 -86 -48 -86 50 -87 49 1 55 c0 31 4 52 9 48 5 -3 77 -6
160 -7z"/>
<path d="M1457 4980 c-30 -24 -50 -78 -42 -113 10 -37 34 -55 215 -159 91 -52
176 -101 190 -109 14 -8 32 -19 40 -26 9 -7 32 -13 53 -15 47 -3 87 26 106 76
25 65 4 90 -151 181 -295 172 -319 185 -354 185 -17 0 -43 -9 -57 -20z"/>
<path d="M5251 4955 c-40 -25 -75 -45 -76 -45 -10 0 -284 -166 -302 -183 -44
-40 -22 -130 37 -159 42 -20 78 -11 163 40 37 23 69 42 71 42 8 0 282 162 294
174 8 7 17 29 22 49 6 28 3 43 -12 69 -45 73 -93 76 -197 13z"/>
<path d="M1198 3888 c-92 -19 -108 -153 -23 -196 27 -13 518 -13 557 0 34 12
58 54 58 103 0 49 -44 95 -92 95 -369 4 -473 4 -500 -2z"/>
<path d="M5230 3890 c-114 -7 -141 -27 -145 -109 -2 -34 35 -83 69 -92 17 -5
144 -8 284 -7 l255 1 30 27 c50 45 42 138 -15 168 -25 13 -328 21 -478 12z"/>
<path d="M1900 3013 c-27 -8 -65 -27 -80 -39 -8 -6 -35 -22 -60 -36 -25 -13
-64 -36 -87 -51 -24 -15 -45 -27 -47 -27 -13 0 -182 -105 -193 -119 -37 -49
-17 -125 42 -157 30 -16 39 -17 69 -6 41 15 421 234 452 261 51 44 34 135 -31
165 -35 17 -40 18 -65 9z"/>
</g>
</svg>
